<?xml version="1.0" encoding="utf-8"?>
<!-- Generator: Adobe Illustrator 28.0.0, SVG Export Plug-In . SVG Version: 6.00 Build 0)  -->
<svg version="1.1" id="Capa_1" xmlns="http://www.w3.org/2000/svg" xmlns:xlink="http://www.w3.org/1999/xlink" x="0px" y="0px"
	 viewBox="0 0 800 800" style="enable-background:new 0 0 800 800;" xml:space="preserve">
<style type="text/css">
	.st0{fill:none;stroke:#FFFFFF;stroke-miterlimit:10;}
	.st1{fill:#FFFFFF;stroke:#FFFFFF;stroke-width:2;}
	.st2{fill:none;stroke:#FFFFFF;stroke-width:2;}
	.st3{fill:#FFFFFF;stroke:#FFFFFF;stroke-miterlimit:10;}
</style>
<g>
	<path vector-effect="non-scaling-stroke" class="st0" d="M438.1,516.8c85.5,0,154.9-69.3,154.9-154.9l0,0
		c0-85.5-69.3-154.9-154.9-154.9l0,0c-85.5,0-154.9,69.3-154.9,154.9l0,0C283.2,447.4,352.6,516.8,438.1,516.8L438.1,516.8"/>
	<path vector-effect="non-scaling-stroke" class="st1" d="M316.2,509.9c7.1-7.1,7.1-18.5,0-25.6l-0.5-0.5c-7.1-7.1-18.5-7.1-25.6,0
		l-77.7,77.7c-7.1,7.1-7.1,18.5,0,25.6l0.5,0.5c7.1,7.1,18.5,7.1,25.6,0L316.2,509.9"/>
	<path vector-effect="non-scaling-stroke" class="st2" d="M438.1,489.1c70.3,0,127.2-57,127.2-127.2l0,0
		c0-70.3-57-127.2-127.2-127.2s-127.2,57-127.2,127.2l0,0C310.9,432.2,367.8,489.1,438.1,489.1L438.1,489.1"/>
	<path vector-effect="non-scaling-stroke" class="st1" d="M514.3,396.6c-10.2,25.4-30.7,39.2-58.1,40.9c-5.1,0.3-9.5,2.7-11.4,7.4
		c-3.2,8.1,2.4,17,11.3,16.7c10.6-0.4,20.6-2.3,30.2-5.8c34.7-12.7,54.5-45,57.3-81.1c1-12.4-15.8-17.8-22.3-6.9
		c-1.1,1.8-1.7,4.2-1.9,7.1C518.9,382.1,517.2,389.3,514.3,396.6"/>
</g>
<g>
	<path class="st3" d="M438.1,516.8c-85.5,0-154.9-69.3-154.9-154.9l0,0c0-85.5,69.3-154.9,154.9-154.9l0,0
		c85.5,0,154.9,69.3,154.9,154.9l0,0C593,447.4,523.6,516.8,438.1,516.8L438.1,516.8z M438.1,489.1c70.3,0,127.2-57,127.2-127.2l0,0
		c0-70.3-57-127.2-127.2-127.2s-127.2,57-127.2,127.2l0,0C310.9,432.2,367.8,489.1,438.1,489.1L438.1,489.1z"/>
	<path class="st3" d="M514.3,396.6c2.9-7.3,4.6-14.5,5.1-21.8c0.2-2.9,0.8-5.2,1.9-7.1c6.5-10.9,23.3-5.5,22.3,6.9
		c-2.8,36.1-22.6,68.4-57.3,81.1c-9.6,3.5-19.6,5.4-30.2,5.8c-8.9,0.3-14.5-8.6-11.3-16.7c1.9-4.7,6.2-7.1,11.4-7.4
		C483.6,435.8,504.2,422,514.3,396.6z"/>
	<path class="st3" d="M315.7,483.8l0.5,0.5c7.1,7.1,7.1,18.5,0,25.6l-77.7,77.7c-7.1,7.1-18.5,7.1-25.6,0l-0.5-0.5
		c-7.1-7.1-7.1-18.5,0-25.6l77.7-77.7C297.2,476.8,308.6,476.8,315.7,483.8z"/>
</g>
</svg>
