<?xml version="1.0" encoding="utf-8"?>
<!-- Generator: Adobe Illustrator 28.0.0, SVG Export Plug-In . SVG Version: 6.00 Build 0)  -->
<svg version="1.1" id="Capa_1" xmlns="http://www.w3.org/2000/svg" xmlns:xlink="http://www.w3.org/1999/xlink" x="0px" y="0px"
	 viewBox="0 0 512 512" style="enable-background:new 0 0 512 512;" xml:space="preserve">
<style type="text/css">
	.st0{fill:#FFFFFF;}
</style>
<g>
	<path class="st0" d="M365.3,99.3c32.6,2.9,58.7,16.6,78.3,41.1c14,17.5,21.8,38.4,23.3,62.6c3.8,60.4,7.8,123.7,11.9,189.5
		c0.7,11.5,0,22.2-2.3,31.8c-10.3,45.5-47.4,79.3-93.9,84.5c-7.2,0.8-14.8,1-22.7,0.7c-3.6-0.1-74.1-0.1-211.2,0.1
		c-8.9,0-16.3-0.3-22.2-1.1c-53.1-7.1-92.7-52.9-93.6-105.9c0-2.7,0.3-10.3,1.1-22.6c3.6-58.5,7.2-115.9,10.8-172.4
		c0.7-10,1.5-17.4,2.5-22.4c4.3-20.3,13.8-37.9,28.3-53c19-19.6,42.7-30.6,71.1-32.9c0.5,0,0.7-0.2,0.7-0.7c0-6.8-0.3-14,0.5-20.7
		c4.6-38.3,33.2-68.6,71.3-74.2c5.9-0.9,13.2-1.2,22.3-1.1c9.8,0.1,20.1,0.1,30.8,0c9.3-0.1,16.8,0.3,22.4,1.4
		c37.7,6.7,65.8,37,69.6,75.2c0.7,6.5,0.5,12.9,0.5,19.6C364.6,99.1,364.9,99.3,365.3,99.3z M171.8,99.3L340.1,99
		c0.2,0,0.5-0.2,0.5-0.5l0,0v-11c0-33.7-27.5-61.1-61.2-61l0,0l-47,0.1c-33.7,0.1-61.1,27.5-61,61.2v11
		C171.3,99.2,171.6,99.3,171.8,99.3L171.8,99.3z M370.4,485.6c46.7,0,84.7-37.9,84.7-84.5c0-1.8,0-3.5-0.1-5.3l-12.2-193
		c-2.8-44.6-39.7-79.3-84.4-79.3H153.7c-44.7,0-81.6,34.7-84.4,79.3l-12.1,193c-2.9,46.6,32.6,86.8,79.2,89.8
		c1.7,0.1,3.5,0.1,5.3,0.1L370.4,485.6z"/>
	<path class="st0" d="M364.4,212.6c-1.7,38.9-31.1,71.3-68.8,78.3c-6.5,1.2-14,1.7-22.7,1.6c-10.1-0.2-20.5-0.2-31.1,0
		c-8.7,0.1-16-0.2-21.8-1c-36.7-5.1-65.6-33.5-71.5-70.3c-1.8-11.4-0.9-24.2-1.1-36.3c0-0.7,0.5-1.1,1.1-1.1l0,0h22.4
		c0.5,0,0.7,0.2,0.7,0.7c0,6.5,0,13.4-0.1,20.5c-0.1,18.6,5.9,33.8,18.1,45.8c8.8,8.6,19,14.1,30.7,16.3c5.1,1,12.7,1.4,22.5,1.2
		c12.1-0.1,24.6-0.2,37.2-0.1c19.9,0,38.4-9.6,49.8-26c7.4-10.5,11-22.9,10.9-37.2c-0.1-8.3-0.1-15.2,0-20.6c0-0.5,0.2-0.7,0.7-0.7
		H364c0.5,0,0.7,0.2,0.7,0.7C364.8,196.6,364.8,206,364.4,212.6z"/>
</g>
</svg>
