<?xml version="1.0" encoding="utf-8"?>
<!-- Generator: Adobe Illustrator 28.0.0, SVG Export Plug-In . SVG Version: 6.00 Build 0)  -->
<svg version="1.1" id="Capa_1" xmlns="http://www.w3.org/2000/svg" xmlns:xlink="http://www.w3.org/1999/xlink" x="0px" y="0px"
	 viewBox="0 0 1000 1080" style="enable-background:new 0 0 1000 1080;" xml:space="preserve">
<style type="text/css">
	.st0{fill:#FFFFFF;}
</style>
<g>
	<path class="st0" d="M715.7,204.2c11.9,2.2,23.8,4.3,35.7,6.2c17.8,2.9,31.6,11.9,37.6,29.1c1.7,5,2.6,11.6,2.4,19.5
		c-0.3,34.7-0.3,68.8,0,102.8c0,7.2-0.7,13.3-2.4,18.1c-5.3,16.2-17.4,25.9-36.2,29.1c-24.8,4.1-49.3,8.4-73.1,12.6
		c-0.9,0.2-1.4,0.7-1.9,1.4c-45.5,86.6-141,131.9-235.9,103.8c-53.3-15.9-97.1-54.7-123.1-104c-0.3-0.7-0.9-1-1.6-1
		c-25.9-4.5-51.7-8.8-77.4-13.4c-16.6-2.9-29.8-16.6-33.3-32.6c-1-4.5-1.4-14.1-1.2-28.8c0.3-28.8,0.3-57.9,0-87.4
		c-0.2-8.4,0.7-15.2,2.4-20c3.6-10.2,10-17.9,19.3-23.1c5.2-2.9,14.1-5.5,26.9-7.4c10-1.6,20.3-3.3,30.7-5.3c0.3,0,0.7-0.3,0.7-0.9
		c5.3-92.9,76.2-169.7,168.1-182.6c21.9-3.1,46-1.7,69-1.7c53.5,0,104.7,24.8,140.7,63.6c29.7,32.1,49.1,76,51.2,120.9
		C714.5,203.5,715.1,204.1,715.7,204.2z M328,186.3c0,0.3,0,0.5,0,0.7c0.2,0.2,0.3,0.3,0.5,0.2c0,0,0.2,0,0.2-0.2
		c49.1-75.9,140-115,228.6-86.4c47.8,15.3,88.6,48.8,114.5,92.2c1.4,2.2,1.9,2.1,1.4-0.5c-10.3-67.1-60.3-119.5-126.9-131.7
		c-9.1-1.7-20.9-2.6-35.3-2.6c-20-0.2-33.4,0-40.7,0.7C398.3,64.2,342.5,115.6,328,186.3z M498.5,494.9
		c91.9,0,166.4-81.4,166.4-181.7l0,0c0-100.3-74.5-181.7-166.4-181.7s-166.4,81.4-166.4,181.7S406.6,494.9,498.5,494.9z
		 M300.9,377.5c-12.2-44.5-11.7-91,1.9-135.2c0.2-0.3,0-0.7-0.5-0.9c-0.2,0-0.2,0-0.3,0l-54.3,9.3c-1,0.2-1.9,1-1.9,2.1v113.8
		c0,1.2,0.5,1.9,1.7,2.1l52.8,9.1C300.7,378,300.9,377.9,300.9,377.5C300.9,377.7,300.9,377.5,300.9,377.5z M696.4,376
		c-0.2,0.5-0.2,0.9-0.2,1.4c0,0.3,0.2,0.5,0.3,0.5h0.2l52.2-9c1.2-0.2,2.2-1.4,2.2-2.6V253.7c0-1.6-1-2.8-2.6-3.1l-53.8-9.3
		c-0.5-0.2-0.9,0.2-0.7,0.7C707.6,286.8,708.5,331.5,696.4,376z"/>
	<path class="st0" d="M862.1,737.5c-6-76.7-61.7-137.6-139.5-144.5c-12.6-1-27.6-1.6-45.2-1.6c-29.8,0-61.7,0.9-92.2,0.9
		c-72.1,0-141.9,0-209.5,0c-24.7,0-49.1-0.5-74.5-0.7c-10.7,0-22.6,0.7-35.7,2.2c-50.7,6-93.1,36-113.8,82.8
		c-13.1,29.5-17.4,63.5-17.4,96.4c0,26.2-0.2,53.5-0.2,81.6c0,13.3-1.9,25.7-2.1,39c-0.2,12.2,5.9,20.3,17.9,24.3
		c17.1,5.5,36.4,5.9,54.7,4.8c17.8-1,36.6-2.2,56-3.8c10.5-0.9,17.6,2.9,21.4,11.2c4.1,9,1.4,21.9-8.1,26.7
		c-2.4,1.2-5.5,1.9-9.1,2.1c-18.3,0.9-37.6,1.9-58.1,3.4c-11.6,0.9-24.1,0.9-37.4,0.2c-32.9-1.9-69-11.2-74.7-49.7
		c-1-7.2-1.6-14.3-1.4-21.4c0.3-14.5,1.2-28.6,1-43.6c-0.2-26.2-0.3-53.3-0.3-81c0-16,0.9-30.7,2.6-43.8
		c4.5-34.7,17.6-70.3,39.1-97.9c31.9-40.9,73.8-64.7,125.7-70.9c37.2-4.5,74.5-2.2,112.1-2.2c102.8,0,205,0,306.7,0
		c35.3,0,67.4,2.8,98.8,13.4c37.6,12.9,67.8,36.2,90.5,69.8c29.1,43.1,33.3,95.7,33.4,146.2c0,13.1,0.3,24.5,1.2,34
		c1.9,24,3.3,47.1,2.1,71.6c-0.9,16.4-4,30.5-9.3,42.4c-9.7,21-30.7,29.7-52.6,32.2c-16.7,1.9-32.6,2.4-47.4,1.4
		c-23.1-1.7-45.3-3.1-66.7-4.1c-22.9-1.2-22.9-39.8,2.4-39.8c5.5,0,10.7,0.2,16,0.7c21,1.9,38.8,2.9,53.5,3.1
		c12.4,0.2,24.1-0.9,35.2-3.4c13.8-3.1,24.7-10,26.9-25.3c3.8-26.9-1.9-53.3-1.4-80.2C863.3,788.6,864.2,762.7,862.1,737.5z"/>
	<path class="st0" d="M553.7,1011.3H443.3c-0.9,0-1.4,0.3-1.7,1c-3.1,6.4-6.2,12.9-10.5,18.6c-6.6,8.8-14.3,15.7-23.1,20.3
		c-23.8,12.8-48.1,13.8-73.1,3.3c-33.4-14.1-50.9-50-39.1-85.2c13.1-39.5,25.9-77.8,38.3-115c8.3-25,32.8-39.1,58.3-39.1
		c69.1,0.2,138.8,0.2,208.6,0c8.8,0,16,0.7,21.9,2.4c19,5,34.1,19,40.3,37.6c12.4,37.6,24.7,74.5,36.9,110.7
		c2.9,8.6,4.5,16.4,4.8,22.8c2.2,44.5-38.8,74.8-79.8,72.8c-25.3-1.2-45.3-11.9-60.3-31.9c-2.4-3.3-5.5-9-9.3-17.1
		C555.1,1011.7,554.5,1011.3,553.7,1011.3z M400.2,1005.1c4.7-7.6,7.6-16.9,13.3-23.6c6.2-7.4,15-10.2,24.7-10.2
		c41.4,0.2,82.2,0.2,122.2,0c12.9,0,22.9,7.2,28.4,18.6c3.8,7.9,7.2,16.7,14,22.4c11.6,10.2,28.6,11.7,42.6,5.7
		c14-6,23.1-19.7,17.9-34.8c-11.4-34-23.6-71.4-37.2-112.2c-1-3.3-2.2-5.7-3.4-7.6c-4.3-6.4-12.1-8.3-19.8-8.3
		c-68.8,0-139.1,0-211,0c-10,0-17.9,5.2-20.9,14.7c-13.1,40.7-25.5,78.1-37.2,112.4c-5.5,16,4,30.3,18.8,36.2
		C369.4,1025.1,390.4,1020.8,400.2,1005.1z"/>
</g>
</svg>
